<?xml version="1.0" encoding="UTF-8" standalone="no"?>
<!-- Created with Inkscape (http://www.inkscape.org/) -->

<svg
   xmlns:dc="http://purl.org/dc/elements/1.1/"
   xmlns:cc="http://creativecommons.org/ns#"
   xmlns:rdf="http://www.w3.org/1999/02/22-rdf-syntax-ns#"
   xmlns:svg="http://www.w3.org/2000/svg"
   xmlns="http://www.w3.org/2000/svg"
   xmlns:sodipodi="http://sodipodi.sourceforge.net/DTD/sodipodi-0.dtd"
   xmlns:inkscape="http://www.inkscape.org/namespaces/inkscape"
   version="1.0"
   width="70"
   height="70"
   id="svg1925"
   inkscape:version="0.47 r22583"
   sodipodi:docname="call-fill-black.svg">
  <metadata
     id="metadata15">
    <rdf:RDF>
      <cc:Work
         rdf:about="">
        <dc:format>image/svg+xml</dc:format>
        <dc:type
           rdf:resource="http://purl.org/dc/dcmitype/StillImage" />
        <dc:title />
      </cc:Work>
    </rdf:RDF>
  </metadata>
  <sodipodi:namedview
     pagecolor="#ffffff"
     bordercolor="#666666"
     borderopacity="1"
     objecttolerance="10"
     gridtolerance="10"
     guidetolerance="10"
     inkscape:pageopacity="0"
     inkscape:pageshadow="2"
     inkscape:window-width="1366"
     inkscape:window-height="692"
     id="namedview13"
     showgrid="false"
     inkscape:zoom="1"
     inkscape:cx="136.17117"
     inkscape:cy="103.08017"
     inkscape:window-x="0"
     inkscape:window-y="25"
     inkscape:window-maximized="1"
     inkscape:current-layer="svg1925" />
  <defs
     id="defs1928">
    <inkscape:perspective
       sodipodi:type="inkscape:persp3d"
       inkscape:vp_x="0 : 108 : 1"
       inkscape:vp_y="0 : 1000 : 0"
       inkscape:vp_z="216 : 108 : 1"
       inkscape:persp3d-origin="108 : 72 : 1"
       id="perspective2865" />
  </defs>
  <path
     style="fill:#000000;fill-opacity:1;fill-rule:evenodd;stroke:none"
     d="M 25.451522,18.180434 18.27275,1.4927143 C 15.227292,-3.9245157 5.0032531,7.1454943 5.0032531,7.1454943 0.8211636,12.892664 0.5423332,13.768204 0,17.744434 l 0,0 c 0.4350655,10.83448 14.357161,28.02833 14.357161,28.02833 11.964301,12.4832 19.609217,17.24979 19.609217,17.24979 14.326926,8.02373 16.485681,6.92172 16.485681,6.92172 7.599816,0.75461 17.070541,-6.2366 19.44109,-15.97565 0.467352,-5.44402 -0.749762,-5.64554 -0.749762,-5.64554 l -17.310001,-6.10715 c -3.558004,-0.74991 -3.860851,-2.37274 -5.906272,6.19663 -0.453312,1.89917 -1.008936,5.64402 -6.016876,2.18815 L 22.252721,32.385924 c -7.031235,-6.46786 -3.086427,-8.00421 -3.086427,-8.00421 8.462588,-3.50343 6.285228,-6.20128 6.285228,-6.20128 z"
     id="path4701"
     inkscape:connector-curvature="0"
     sodipodi:nodetypes="cccccccccccscccc" />
</svg>
