<?xml version="1.0" encoding="UTF-8" standalone="no"?>
<svg
   xmlns:dc="http://purl.org/dc/elements/1.1/"
   xmlns:cc="http://creativecommons.org/ns#"
   xmlns:rdf="http://www.w3.org/1999/02/22-rdf-syntax-ns#"
   xmlns:svg="http://www.w3.org/2000/svg"
   xmlns="http://www.w3.org/2000/svg"
   xmlns:sodipodi="http://sodipodi.sourceforge.net/DTD/sodipodi-0.dtd"
   xmlns:inkscape="http://www.inkscape.org/namespaces/inkscape"
   height="70.264832"
   width="80"
   id="svg4518"
   version="1.1"
   inkscape:version="0.47 r22583"
   sodipodi:docname="group-fill-black.svg">
  <metadata
     id="metadata4526">
    <rdf:RDF>
      <cc:Work
         rdf:about="">
        <dc:format>image/svg+xml</dc:format>
        <dc:type
           rdf:resource="http://purl.org/dc/dcmitype/StillImage" />
      </cc:Work>
    </rdf:RDF>
  </metadata>
  <defs
     id="defs4524">
    <inkscape:perspective
       sodipodi:type="inkscape:persp3d"
       inkscape:vp_x="0 : 500 : 1"
       inkscape:vp_y="0 : 1000 : 0"
       inkscape:vp_z="1000 : 500 : 1"
       inkscape:persp3d-origin="500 : 333.33333 : 1"
       id="perspective4528" />
  </defs>
  <sodipodi:namedview
     pagecolor="#ffffff"
     bordercolor="#666666"
     borderopacity="1"
     objecttolerance="10"
     gridtolerance="10"
     guidetolerance="10"
     inkscape:pageopacity="0"
     inkscape:pageshadow="2"
     inkscape:window-width="1366"
     inkscape:window-height="692"
     id="namedview4522"
     showgrid="false"
     inkscape:zoom="3.776"
     inkscape:cx="28.643282"
     inkscape:cy="33.800008"
     inkscape:window-x="0"
     inkscape:window-y="25"
     inkscape:window-maximized="1"
     inkscape:current-layer="svg4518" />
  <path
     d="M 0,60.084431 0,46.310948 Q 0,43.715937 1.4062499,43.11709 L 15.15625,34.932854 Q 9.8437499,30.940536 9.6875,21.558596 q 0,-5.788849 2.8125,-10.579625 2.96875,-4.1919304 7.187499,-4.3915528 2.5,0 5,1.9961636 -3.906248,12.7754012 1.875,24.1534962 -0.937499,1.197694 -2.031249,1.996153 l -9.0625,5.589246 Q 11.562499,42.717866 11.25,48.905949 l 0,14.571952 -9.0625,0 q -2.03125,0 -2.1875,-3.39347 z m 15.46875,5.98847 0,-17.166952 q 0,-2.794613 1.718749,-3.792695 L 29.375,37.927089 33.90625,35.132466 q -2.968751,-2.395388 -4.765664,-6.78693 -1.796916,-4.391552 -1.796916,-9.581553 0,-7.785012 3.671835,-13.274503 Q 34.68734,0 39.84367,0 45,0 48.59367,5.48948 q 3.593669,5.489491 3.593749,13.274503 0,10.779247 -6.249999,16.168871 l 4.843751,2.994235 11.718749,7.186165 q 1.875,0.998082 1.875,3.792695 l 0,17.166952 q -0.156251,3.792695 -2.96875,4.19193 l -43.281251,0 Q 17.03117,70.065219 16.24992,68.867525 15.46867,67.66983 15.46867,66.072901 z M 53.28125,32.337843 Q 58.75,21.558596 55,8.7831941 q 2.5,-1.9961535 5.3125,-2.1957759 3.90625,0 7.1875,4.3915528 2.812499,4.191929 2.812499,10.579625 0,8.383859 -5.156249,13.374258 L 78.593749,43.11709 Q 80,44.115172 80,46.310948 l 0,13.773483 q 0,3.193847 -2.187501,3.39347 l -9.374999,0 0,-14.571952 q 0,-5.788859 -4.0625,-8.583472 l -8.75,-5.389623 q -1.250001,-0.79847 -2.34375,-2.595011 z"
     id="path4520" />
</svg>
