<?xml version="1.0" encoding="UTF-8" standalone="no"?>
<svg
   xmlns:dc="http://purl.org/dc/elements/1.1/"
   xmlns:cc="http://creativecommons.org/ns#"
   xmlns:rdf="http://www.w3.org/1999/02/22-rdf-syntax-ns#"
   xmlns:svg="http://www.w3.org/2000/svg"
   xmlns="http://www.w3.org/2000/svg"
   xmlns:sodipodi="http://sodipodi.sourceforge.net/DTD/sodipodi-0.dtd"
   xmlns:inkscape="http://www.inkscape.org/namespaces/inkscape"
   height="128"
   preserveAspectRatio="xMidYMid"
   viewBox="0 0 128 128"
   width="128"
   id="svg2"
   version="1.1"
   inkscape:version="0.91 r13725"
   sodipodi:docname="iCS-M-medium.svg">
  <metadata
     id="metadata16">
    <rdf:RDF>
      <cc:Work
         rdf:about="">
        <dc:format>image/svg+xml</dc:format>
        <dc:type
           rdf:resource="http://purl.org/dc/dcmitype/StillImage" />
        <dc:title></dc:title>
      </cc:Work>
    </rdf:RDF>
  </metadata>
  <sodipodi:namedview
     pagecolor="#ffffff"
     bordercolor="#666666"
     borderopacity="1"
     objecttolerance="10"
     gridtolerance="10"
     guidetolerance="10"
     inkscape:pageopacity="0"
     inkscape:pageshadow="2"
     inkscape:window-width="1280"
     inkscape:window-height="752"
     id="namedview14"
     showgrid="false"
     inkscape:zoom="0.9983453"
     inkscape:cx="-11.70669"
     inkscape:cy="64.000001"
     inkscape:window-x="0"
     inkscape:window-y="0"
     inkscape:window-maximized="1"
     inkscape:current-layer="svg2"
     fit-margin-top="0"
     fit-margin-left="0"
     fit-margin-right="0"
     fit-margin-bottom="0" />
  <defs
     id="defs4">
    <style
       id="style6">
      .cls-1 {
        fill: #fff;
      }

      .cls-2 {
        fill: lime;
      }

      .cls-2, .cls-3 {
        fill-rule: evenodd;
      }

      .cls-3 {
        fill: #000;
        opacity: 0.1;
      }
    </style>
  </defs>
  <circle
     class="cls-1"
     cx="64"
     cy="64"
     r="63.982559"
     id="circle8"
     style="fill:#ffffff" />
  <path
     class="cls-2"
     d="M 85.037881,124.42496 C 118.40969,112.80605 136.04387,76.333931 124.42496,42.962121 112.80605,9.5903107 76.333931,-8.0438693 42.962121,3.5750407 9.5903107,15.193951 -8.0438693,51.666071 3.5750407,85.037881 15.193951,118.40969 51.666071,136.04387 85.037881,124.42496 Z m -26.64693,-73.573099 -4.99553,-20.43973 c 0,0 23.07112,-10.47976 33.80736,21.96981 -0.30571,2.58274 -2.87521,5.95604 -2.87521,5.95604 0,0 5.21828,9.67547 5.56464,10.56768 0.34637,0.89221 -3.97419,2.79954 -3.97419,2.79954 0,0 1.42836,4.10252 1.68508,4.83989 0.25681,0.73761 -1.97411,0.80694 -2.60501,-0.0368 0,0 -0.38546,1.49475 0.16581,1.83 0,0 -13.07676,-4.42395 -16.8161,-9.71784 l -0.001,-0.33497 c 1.38556,-2.74593 1.69813,-6.03184 0.60572,-9.16946 -1.60208,-4.6015 -5.77039,-7.57619 -10.33658,-7.87254 0,0 -0.13606,-0.0617 -0.22502,-0.39167 z m -15.01453,44.86662 c 0.35909,-1.2368 2.67081,-14.7463 -0.7727,-20.49411 -3.44336,-5.74812 -9.56694,-13.07618 -9.06207,-19.25997 0.50463,-6.18371 3.649,-16.77188 11.25557,-21.14308 0,0 5.48158,17.72354 5.74386,18.52779 l 0.0992,0.36323 c -3.83948,3.00934 -5.53252,8.24097 -3.8356,13.11486 2.13419,6.12983 8.82214,9.37266 14.93804,7.24332 1.40441,-0.48897 2.65623,-1.21857 3.72625,-2.12676 0,0 0.19697,0.077 0.32197,0.16234 0,0 10.15066,7.43207 20.04204,8.83048 0,0 3.9153,8.5775 -2.26983,9.04859 -6.18522,0.47085 -8.7916,-0.59147 -9.78017,0.33785 -2.75432,2.88956 -0.23551,16.846589 1.09796,19.822199 -0.30603,0.34632 -1.77132,0.57226 -2.40971,0.39041 0,0 -8.96506,-3.18151 -11.67722,-7.43225 -2.39562,-0.57703 -15.44224,-1.76981 -17.8728,-4.631019 0,0 0.0959,-1.51699 0.45521,-2.75388 z"
     id="path10"
     style="fill:#000046;fill-opacity:1;fill-rule:evenodd"
     inkscape:connector-curvature="0" />
</svg>
