<?xml version="1.0" encoding="UTF-8" standalone="no"?>
<!-- Created with Inkscape (http://www.inkscape.org/) -->

<svg
   xmlns:dc="http://purl.org/dc/elements/1.1/"
   xmlns:cc="http://creativecommons.org/ns#"
   xmlns:rdf="http://www.w3.org/1999/02/22-rdf-syntax-ns#"
   xmlns:svg="http://www.w3.org/2000/svg"
   xmlns="http://www.w3.org/2000/svg"
   xmlns:sodipodi="http://sodipodi.sourceforge.net/DTD/sodipodi-0.dtd"
   xmlns:inkscape="http://www.inkscape.org/namespaces/inkscape"
   width="382.85715"
   height="908.57141"
   viewBox="0 0 382.85716 908.5714"
   id="svg2"
   version="1.1"
   inkscape:version="0.91 r13725"
   sodipodi:docname="operator-fill-black.svg">
  <defs
     id="defs4" />
  <sodipodi:namedview
     id="base"
     pagecolor="#ffffff"
     bordercolor="#666666"
     borderopacity="1.0"
     inkscape:pageopacity="0.0"
     inkscape:pageshadow="2"
     inkscape:zoom="0.35"
     inkscape:cx="333.47007"
     inkscape:cy="497.7192"
     inkscape:document-units="px"
     inkscape:current-layer="layer1"
     showgrid="false"
     units="px"
     fit-margin-top="0"
     fit-margin-left="0"
     fit-margin-right="0"
     fit-margin-bottom="0"
     inkscape:window-width="1366"
     inkscape:window-height="704"
     inkscape:window-x="0"
     inkscape:window-y="27"
     inkscape:window-maximized="1" />
  <metadata
     id="metadata7">
    <rdf:RDF>
      <cc:Work
         rdf:about="">
        <dc:format>image/svg+xml</dc:format>
        <dc:type
           rdf:resource="http://purl.org/dc/dcmitype/StillImage" />
        <dc:title></dc:title>
      </cc:Work>
    </rdf:RDF>
  </metadata>
  <g
     inkscape:label="Layer 1"
     inkscape:groupmode="layer"
     id="layer1"
     transform="translate(-177.14287,-35.219345)">
    <path
       style="fill:#ffffff"
       id="path3356"
       sodipodi:type="arc"
       sodipodi:cx="381.42856"
       sodipodi:cy="180.93364"
       sodipodi:rx="121.42857"
       sodipodi:ry="128.57143"
       sodipodi:start="1.7346426"
       sodipodi:end="1.7321433"
       d="M 361.62184,307.78313 A 121.42857,128.57143 0 0 1 261.6139,160.04108 121.42857,128.57143 0 0 1 401.08555,54.058036 121.42857,128.57143 0 0 1 501.26778,201.66765 121.42857,128.57143 0 0 1 361.92132,307.83515 l 19.50724,-126.90151 z" />
    <path
       style="fill:#ffffff"
       id="path3363"
       sodipodi:type="arc"
       sodipodi:cx="354.28571"
       sodipodi:cy="189.50505"
       sodipodi:rx="97.14286"
       sodipodi:ry="111.42857"
       sodipodi:start="1.7346426"
       sodipodi:end="1.7321433"
       d="M 338.44033,299.44128 A 97.14286,111.42857 0 0 1 258.43398,171.39817 97.14286,111.42857 0 0 1 370.0113,79.54619 97.14286,111.42857 0 0 1 450.15708,207.47452 97.14286,111.42857 0 0 1 338.67992,299.48637 l 15.60579,-109.98132 z" />
    <path
       style="fill:#000000"
       id="path3367"
       sodipodi:type="arc"
       sodipodi:cx="368.57144"
       sodipodi:cy="225.21935"
       sodipodi:rx="191.42857"
       sodipodi:ry="190"
       sodipodi:start="2.0244738"
       sodipodi:end="0.32370101"
       d="M 284.67328,395.99922 A 191.42857,190 0 0 1 193.03518,149.42224 191.42857,190 0 0 1 437.26397,47.873633 191.42857,190 0 0 1 550.05812,285.65408"
       sodipodi:open="true" />
    <path
       style="fill:#ffffff"
       id="path3371"
       sodipodi:type="arc"
       sodipodi:cx="368.57144"
       sodipodi:cy="228.07649"
       sodipodi:rx="177.14285"
       sodipodi:ry="178.57144"
       sodipodi:start="1.7346426"
       sodipodi:end="1.7182153"
       d="M 339.67693,404.25636 A 177.14285,178.57144 0 0 1 193.68384,199.67274 177.14285,178.57144 0 0 1 396.02949,51.663324 177.14285,178.57144 0 0 1 543.68458,255.03125 177.14285,178.57144 0 0 1 342.55171,404.71106"
       sodipodi:open="true" />
    <path
       style="fill:#000000"
       id="path3375"
       sodipodi:type="arc"
       sodipodi:cx="198.57143"
       sodipodi:cy="238.07649"
       sodipodi:rx="18.571428"
       sodipodi:ry="62.857143"
       sodipodi:start="1.7346426"
       sodipodi:end="1.7321433"
       d="m 195.54216,300.0918 a 18.571428,62.857143 0 0 1 -15.29533,-72.22945 18.571428,62.857143 0 0 1 21.33096,-51.81393 18.571428,62.857143 0 0 1 15.32199,72.1647 18.571428,62.857143 0 0 1 -21.31181,51.90411 l 2.98346,-62.04074 z" />
    <path
       style="fill:#000000"
       id="path3375-8"
       sodipodi:type="arc"
       sodipodi:cx="531.42859"
       sodipodi:cy="232.3622"
       sodipodi:rx="18.571428"
       sodipodi:ry="62.857143"
       sodipodi:start="1.7346426"
       sodipodi:end="1.7321433"
       d="m 528.39933,294.37751 a 18.571428,62.857143 0 0 1 -15.29534,-72.22945 18.571428,62.857143 0 0 1 21.33096,-51.81394 18.571428,62.857143 0 0 1 15.32199,72.1647 18.571428,62.857143 0 0 1 -21.31181,51.90412 l 2.98346,-62.04074 z" />
    <path
       style="fill:#000000"
       id="path3410"
       sodipodi:type="arc"
       sodipodi:cx="290"
       sodipodi:cy="378.07651"
       sodipodi:rx="21.428572"
       sodipodi:ry="14.285714"
       sodipodi:start="1.7346426"
       sodipodi:end="1.7321433"
       d="m 286.5047,392.1709 a 21.428572,14.285714 0 0 1 -17.64846,-16.41579 21.428572,14.285714 0 0 1 24.61264,-11.77589 21.428572,14.285714 0 0 1 17.67922,16.40107 21.428572,14.285714 0 0 1 -24.59055,11.79639 L 290,378.07651 Z" />
    <path
       style="fill:#000000"
       id="path3414"
       sodipodi:type="arc"
       sodipodi:cx="366.57144"
       sodipodi:cy="223.79079"
       sodipodi:rx="145.71429"
       sodipodi:ry="157.14285"
       sodipodi:start="1.7346426"
       sodipodi:end="1.7182156"
       sodipodi:open="true"
       d="M 342.80338,378.82906 A 145.71429,157.14285 0 0 1 222.71227,198.79548 145.71429,157.14285 0 0 1 389.15792,68.547218 145.71429,157.14285 0 0 1 510.61612,247.511 145.71429,157.14285 0 0 1 345.16807,379.22918" />
    <path
       style="fill:#000000"
       id="path3416"
       sodipodi:type="arc"
       sodipodi:cx="374.28571"
       sodipodi:cy="665.21936"
       sodipodi:rx="185.71428"
       sodipodi:ry="278.57141"
       sodipodi:start="1.7346426"
       sodipodi:end="1.7182156"
       sodipodi:open="true"
       d="M 343.99308,940.05992 A 185.71428,278.57141 0 0 1 190.9358,620.9095 185.71428,278.57141 0 0 1 403.07239,390.01486 185.71428,278.57141 0 0 1 557.87205,707.26884 185.71428,278.57141 0 0 1 347.0069,940.76923" />
  </g>
</svg>
